<svg version="1.2" xmlns="http://www.w3.org/2000/svg" viewBox="0 0 104 102" width="520" height="510">
	<style>
		.s0 { opacity: .06;fill: #6c62a5 } 
		.s1 { fill: none;stroke: #6c62a5 } 
		.s2 { opacity: .08;fill: none;stroke: #6c62a5;stroke-width: 2 } 
		.s3 { opacity: .08;fill: none;stroke: #6c62a5;stroke-linecap: round;stroke-width: 2 } 
		.s4 { fill: #6c62a5 } 
		.s5 { fill: none;stroke: #6c62a5;stroke-width: 1.5 } 
		.s6 { fill: none;stroke: #6c62a5;stroke-linecap: round;stroke-width: 1.5 } 
	</style>
	<g>
		<path fill-rule="evenodd" class="s0" d="m22 1h60c11.05 0 20 8.95 20 20v60c0 11.05-8.95 20-20 20h-60c-11.05 0-20-8.95-20-20v-60c0-11.05 8.95-20 20-20z"/>
		<path fill-rule="evenodd" class="s1" d="m22 1.5h60c10.77 0 19.5 8.73 19.5 19.5v60c0 10.77-8.73 19.5-19.5 19.5h-60c-10.77 0-19.5-8.73-19.5-19.5v-60c0-10.77 8.73-19.5 19.5-19.5z"/>
		<path fill-rule="evenodd" class="s2" d="m74.08 50.75c-3.08 0-5.58-2.5-5.58-5.58 0-3.09 2.5-5.59 5.58-5.59 3.09 0 5.59 2.5 5.59 5.59 0 3.08-2.5 5.58-5.59 5.58z"/>
		<path fill-rule="evenodd" class="s2" d="m51.75 92.63c-4.63 0-8.38-3.75-8.38-8.38 0.01-4.63 3.75-8.37 8.38-8.37 4.63 0 8.38 3.74 8.38 8.37-0.01 4.63-3.75 8.38-8.38 8.38z"/>
		<path fill-rule="evenodd" class="s2" d="m85.25 92.63c-4.63 0-8.38-3.75-8.38-8.38 0.01-4.63 3.75-8.37 8.38-8.37 4.63 0 8.38 3.74 8.38 8.37-0.01 4.63-3.75 8.38-8.38 8.38z"/>
		<path class="s3" d="m86.65 61.92h-10.94c-1.05 0-2.08-0.36-2.9-1.02l-6.02-4.79c-3.54-2.82-8.75-1.81-10.99 2.12-2.16 3.8-0.55 8.64 3.46 10.39l8.62 3.76c2.66 1.16 3.88 4.25 2.74 6.92l-2.12 4.95"/>
		<path class="s4" d="m15.11 41.2q-0.68 0-1.49-0.09-0.81-0.07-1.59-0.18-0.75-0.13-1.29-0.22l0.16-1.96q0.56 0.07 1.3 0.16 0.73 0.07 1.45 0.13 0.74 0.05 1.28 0.05 0.69 0 1.12-0.18 0.43-0.18 0.63-0.54 0.21-0.38 0.21-0.95 0-0.47-0.19-0.74-0.18-0.29-0.67-0.45-0.49-0.18-1.35-0.34-1.08-0.2-1.85-0.47-0.76-0.27-1.25-0.67-0.48-0.41-0.72-1.04-0.21-0.63-0.21-1.53 0-1.4 0.52-2.2 0.52-0.81 1.49-1.15 0.98-0.34 2.29-0.34 0.59 0 1.35 0.07 0.77 0.06 1.51 0.15 0.76 0.09 1.28 0.19l-0.11 1.98q-0.54-0.07-1.26-0.12-0.7-0.07-1.4-0.13-0.69-0.05-1.17-0.05-0.67 0-1.12 0.14-0.45 0.15-0.66 0.45-0.22 0.31-0.22 0.78 0 0.54 0.22 0.82 0.21 0.29 0.72 0.47 0.52 0.18 1.42 0.38 1.06 0.23 1.8 0.5 0.75 0.27 1.2 0.65 0.47 0.38 0.69 0.97 0.21 0.6 0.21 1.5 0 1.44-0.52 2.32-0.5 0.86-1.47 1.26-0.96 0.38-2.31 0.38zm5.88 3.6v-12.84h2.38l0.02 0.58q0.25-0.16 0.63-0.34 0.39-0.18 0.84-0.31 0.45-0.12 0.88-0.12 1.21 0 1.95 0.52 0.75 0.5 1.1 1.55 0.36 1.02 0.36 2.61 0 1.69-0.4 2.73-0.4 1.05-1.28 1.53-0.86 0.49-2.28 0.49-0.45 0-0.98-0.07-0.52-0.08-0.82-0.15v3.82zm3.81-5.6q0.72 0 1.14-0.31 0.41-0.3 0.57-0.91 0.18-0.63 0.18-1.59 0-1.47-0.41-2.03-0.4-0.58-1.15-0.58-0.29 0-0.62 0.07-0.32 0.08-0.63 0.18-0.3 0.11-0.5 0.22v4.82q0.22 0.02 0.61 0.08 0.42 0.05 0.81 0.05zm9.87 2q-1.54 0-2.47-0.51-0.92-0.5-1.33-1.54-0.42-1.07-0.42-2.74 0-1.62 0.44-2.63 0.43-1.02 1.36-1.51 0.94-0.5 2.42-0.5 1.49 0 2.41 0.5 0.93 0.49 1.37 1.51 0.45 1.01 0.45 2.63 0 1.67-0.42 2.74-0.41 1.04-1.35 1.54-0.92 0.51-2.46 0.51zm0-1.98q0.75 0 1.13-0.27 0.38-0.29 0.5-0.9 0.15-0.63 0.15-1.64 0-0.99-0.16-1.57-0.17-0.59-0.54-0.84-0.38-0.25-1.08-0.25-0.69 0-1.08 0.25-0.38 0.25-0.54 0.84-0.17 0.58-0.17 1.57 0 1.01 0.13 1.64 0.14 0.61 0.52 0.9 0.38 0.27 1.14 0.27zm5.86 1.78v-9.04h2.4v1.07q0.3-0.24 0.75-0.49 0.45-0.27 0.97-0.49 0.54-0.23 1.03-0.3v2.32q-0.47 0.07-0.99 0.25-0.52 0.16-0.99 0.36-0.45 0.2-0.77 0.36v5.96zm9.56 0.22q-0.99 0-1.6-0.29-0.61-0.29-0.88-0.99-0.25-0.72-0.25-2v-3.98h-1.06v-2h1.06v-2.39h2.39v2.39h2.31v2h-2.31v3.35q0 0.7 0.06 1.1 0.07 0.39 0.28 0.56 0.22 0.16 0.67 0.16 0.13 0 0.38-0.02 0.25-0.02 0.5-0.04 0.25-0.01 0.42-0.03l0.07 1.92q-0.27 0.06-0.67 0.11-0.38 0.06-0.75 0.09-0.36 0.06-0.62 0.06z"/>
		<path fill-rule="evenodd" class="s5" d="m84 62c-1.11 0-2-0.89-2-2 0-1.11 0.89-2 2-2 1.11 0 2 0.89 2 2 0 1.11-0.89 2-2 2z"/>
		<path fill-rule="evenodd" class="s5" d="m76 77c-1.66 0-3-1.34-3-3 0-1.66 1.34-3 3-3 1.66 0 3 1.34 3 3 0 1.66-1.34 3-3 3z"/>
		<path fill-rule="evenodd" class="s5" d="m88 77c-1.66 0-3-1.34-3-3 0-1.66 1.34-3 3-3 1.66 0 3 1.34 3 3 0 1.66-1.34 3-3 3z"/>
		<path class="s6" d="m88.5 66h-3.92q-0.58-0.01-1.03-0.36l-2.16-1.72c-1.27-1.01-3.14-0.65-3.94 0.76-0.77 1.36-0.2 3.09 1.24 3.72l3.09 1.35c0.95 0.42 1.39 1.52 0.98 2.48l-0.76 1.77"/>
	</g>
</svg>