<svg width="30" height="30" viewBox="0 0 30 30" fill="none" xmlns="http://www.w3.org/2000/svg">
<mask id="path-1-inside-1_1024_368" fill="white">
<path d="M10.6441 6.82698L9.86169 6.79957L9.92473 5H19.1316L19.1943 6.79957L18.4117 6.82678L18.3753 5.78302H10.6807L10.6441 6.82698Z"/>
</mask>
<path d="M10.6441 6.82698L9.86169 6.79957L9.92473 5H19.1316L19.1943 6.79957L18.4117 6.82678L18.3753 5.78302H10.6807L10.6441 6.82698Z" fill="#656A53"/>
<path d="M10.6441 6.82698L10.6091 7.82636L11.6085 7.86137L11.6435 6.86202L10.6441 6.82698ZM9.86169 6.79957L8.86231 6.76457L8.8273 7.76395L9.82669 7.79896L9.86169 6.79957ZM9.92473 5V4H8.95914L8.92534 4.96499L9.92473 5ZM19.1316 5L20.131 4.96521L20.0974 4H19.1316V5ZM19.1943 6.79957L19.229 7.79897L20.2285 7.76422L20.1937 6.76478L19.1943 6.79957ZM18.4117 6.82678L17.4123 6.86164L17.4471 7.86092L18.4464 7.82618L18.4117 6.82678ZM18.3753 5.78302L19.3746 5.74816L19.341 4.78302H18.3753V5.78302ZM10.6807 5.78302V4.78302H9.71518L9.68135 5.74797L10.6807 5.78302ZM10.6441 6.82698L10.6791 5.82759L9.8967 5.80018L9.86169 6.79957L9.82669 7.79896L10.6091 7.82636L10.6441 6.82698ZM9.86169 6.79957L10.8611 6.83458L10.9241 5.03501L9.92473 5L8.92534 4.96499L8.86231 6.76457L9.86169 6.79957ZM9.92473 5V6H19.1316V5V4H9.92473V5ZM19.1316 5L18.1323 5.03479L18.1949 6.83436L19.1943 6.79957L20.1937 6.76478L20.131 4.96521L19.1316 5ZM19.1943 6.79957L19.1595 5.80018L18.3769 5.82738L18.4117 6.82678L18.4464 7.82618L19.229 7.79897L19.1943 6.79957ZM18.4117 6.82678L19.4111 6.79192L19.3746 5.74816L18.3753 5.78302L17.3759 5.81788L17.4123 6.86164L18.4117 6.82678ZM18.3753 5.78302V4.78302H10.6807V5.78302V6.78302H18.3753V5.78302ZM10.6807 5.78302L9.68135 5.74797L9.64474 6.79193L10.6441 6.82698L11.6435 6.86202L11.6801 5.81806L10.6807 5.78302Z" fill="#656A53" mask="url(#path-1-inside-1_1024_368)"/>
<path d="M4.67322 14.0712H3.32134C2.59274 14.0712 2 13.4628 2 12.7146C2 11.967 2.59274 11.3584 3.32134 11.3584H5.6888V12.1414H3.32134C3.02458 12.1416 2.78302 12.3986 2.78302 12.7146C2.78302 13.0307 3.02458 13.2881 3.32134 13.2881H4.67322V14.0712Z" fill="#656A53"/>
<path d="M25.7349 14.0712H24.1287V13.2881H25.7349C26.0321 13.2881 26.2736 13.0309 26.2736 12.7146C26.2736 12.3986 26.0321 12.1414 25.7349 12.1414H23.3671V11.3584H25.7349C26.4637 11.3584 27.0566 11.9668 27.0566 12.7146C27.0566 13.4628 26.4637 14.0712 25.7349 14.0712Z" fill="#656A53"/>
<path d="M23.6641 13.8434L21.816 8.77046C21.7996 8.72563 21.7142 8.66612 21.6665 8.66612H7.39008C7.34486 8.66612 7.26206 8.72485 7.24718 8.76752L5.51554 13.7227L4.77637 13.4645L6.50801 8.50932C6.63271 8.15246 7.01188 7.8833 7.39008 7.8833H21.6665C22.0423 7.8833 22.4227 8.14933 22.5515 8.50247L24.3996 13.5756L23.6641 13.8434Z" fill="#656A53"/>
<path d="M6.1339 26H5.08055C3.86883 26 2.88281 25.0042 2.88281 23.7801V22.4688H3.66583V23.7801C3.66583 24.5723 4.30047 25.2169 5.08055 25.2169H6.1339C6.91379 25.2169 7.54843 24.5723 7.54843 23.7801V22.4688H8.33144V23.7801C8.33144 25.0042 7.34562 26 6.1339 26Z" fill="#656A53"/>
<path d="M23.9758 26.0001H22.9223C21.7106 26.0001 20.7244 25.0043 20.7244 23.7802V22.2036H21.5074V23.7802C21.5074 24.5724 22.142 25.2171 22.9223 25.2171H23.9758C24.7555 25.2171 25.3902 24.5724 25.3902 23.7802V22.2036H26.1732V23.7802C26.173 25.0043 25.1874 26.0001 23.9758 26.0001Z" fill="#656A53"/>
<path d="M25.8687 22.6038H3.18785C2.5724 22.6038 2.07166 22.0991 2.07166 21.4786V16.5751C2.07166 16.0572 2.36118 15.4074 2.74505 15.0639L4.66853 13.344C5.04184 13.01 5.69918 12.7583 6.19738 12.7583H22.858C23.3564 12.7583 24.0138 13.01 24.3873 13.344L26.3112 15.0635C26.6954 15.4078 26.9849 16.0574 26.9849 16.5749V21.4786C26.9851 22.0991 26.4842 22.6038 25.8687 22.6038ZM6.19757 13.5413C5.8967 13.5413 5.41671 13.7253 5.19061 13.9277L3.26713 15.6476C3.05121 15.8407 2.85467 16.2829 2.85467 16.5751V21.4786C2.85467 21.6673 3.00403 21.8208 3.18785 21.8208H25.8687C26.0526 21.8208 26.2021 21.6673 26.2021 21.4786V16.5749C26.2021 16.2831 26.0052 15.8407 25.7893 15.6471L23.8656 13.9277C23.6395 13.7255 23.1595 13.5413 22.8582 13.5413H6.19757Z" fill="#656A53"/>
<path d="M25.8687 22.6038H3.18785C2.5724 22.6038 2.07166 22.0991 2.07166 21.4786V16.5751C2.07166 16.0572 2.36118 15.4074 2.74505 15.0639L4.66853 13.344C5.04184 13.01 5.69918 12.7583 6.19738 12.7583H22.858C23.3564 12.7583 24.0138 13.01 24.3873 13.344L26.3112 15.0635C26.6954 15.4078 26.9849 16.0574 26.9849 16.5749V21.4786C26.9851 22.0991 26.4842 22.6038 25.8687 22.6038ZM6.19757 13.5413C5.8967 13.5413 5.41671 13.7253 5.19061 13.9277L3.26713 15.6476C3.05121 15.8407 2.85467 16.2829 2.85467 16.5751V21.4786C2.85467 21.6673 3.00403 21.8208 3.18785 21.8208H25.8687C26.0526 21.8208 26.2021 21.6673 26.2021 21.4786V16.5749C26.2021 16.2831 26.0052 15.8407 25.7893 15.6471L23.8656 13.9277C23.6395 13.7255 23.1595 13.5413 22.8582 13.5413H6.19757Z" fill="#656A53"/>
<path d="M21.9891 22.6038H7.43591V20.7819C7.43591 19.9593 8.09913 19.29 8.91425 19.29H20.51C21.3257 19.29 21.9893 19.9593 21.9893 20.7819L21.9891 22.6038ZM8.21893 21.8208H21.2061V20.7819C21.2061 20.391 20.8936 20.0731 20.5098 20.0731H8.91425C8.53096 20.0731 8.21893 20.391 8.21893 20.7819V21.8208Z" fill="#656A53"/>
<path d="M6.13618 19.6562H4.20349V20.4393H6.13618V19.6562Z" fill="#656A53"/>
<path d="M24.8466 19.6562H23.1678V20.4393H24.8466V19.6562Z" fill="#656A53"/>
<path d="M18.1064 16.894H10.9498V17.6771H18.1064V16.894Z" fill="#656A53"/>
<path d="M7.88059 18.4832H4.17358V17.7001H7.88039C8.12058 17.6999 8.20887 17.6308 8.21787 17.614C8.22257 17.605 8.22668 17.5316 8.1337 17.3963C7.81462 16.9326 7.36105 16.6487 7.2205 16.6487H2.65002V15.8657H7.2205C7.75256 15.8657 8.40717 16.4125 8.77871 16.9527C9.02046 17.3045 9.06862 17.6782 8.91104 17.9785C8.74249 18.299 8.36684 18.483 7.88059 18.4832Z" fill="#656A53"/>
<path d="M24.8827 18.4834H21.1759C20.6898 18.4834 20.3141 18.2995 20.1454 17.9789C19.9874 17.6786 20.0354 17.3047 20.2773 16.9529C20.6489 16.4127 21.3033 15.8657 21.8356 15.8657H26.1525V16.6487H21.8356C21.695 16.6487 21.2416 16.9326 20.9226 17.3963C20.8368 17.5214 20.8307 17.5997 20.8384 17.6142C20.8474 17.6312 20.9357 17.7001 21.1759 17.7001H24.8827V18.4834Z" fill="#656A53"/>
</svg>
